PathFileType	4	(X/Y/Z)	OpenSim_Sub08_CSBaseline_Gyro.trc
DataRate	CameraRate	NumFrames	NumMarkers	Units	OrigDataRate	OrigDataStartFrame	OrigNumFrames
100	100	37	8	m	100	2048	5461
Frame#	Time	torso_imu_offset_imu	pelvis_imu_offset_imu	tibia_r_imu_offset_imu	femur_r_imu_offset_imu	tibia_l_imu_offset_imu	femur_l_imu_offset_imu	toes_r_imu_offset_imu	toes_l_imu_offset_imu
				X1	Y1	Z1	X2	Y2	Z2	X3	Y3	Z3	X4	Y4	Z4	X5	Y5	Z5	X6	Y6	Z6	X7	Y7	Z7	X8		Y8	Z8	

2048	20.47000000	0.78755000	-0.22620800	0.12128100	0.22588800	0.13110100	-0.36605400	0.61261800	-0.17658700	-0.75162500	-0.19506700	-0.21207300	-0.46399400	-0.20496800	-0.69392600	-2.91968900	-0.79739600	0.39200000	-1.22909700	0.10880400	-0.06100700	-0.22031500	0.56243400	3.38286300	-1.47621300
2049	20.48000000	0.76419400	-0.22076900	0.13128100	0.19613500	0.16705800	-0.36732700	0.58967200	-0.16196200	-0.74853000	-0.17382300	-0.21872800	-0.46305700	-0.82356500	-0.66559700	-3.31266200	-0.99180300	0.36756700	-1.18491500	0.15154900	-0.01111100	-0.29063000	0.60886700	3.72474900	-1.79631700
2050	20.49000000	0.74372900	-0.21312300	0.12396100	0.18049500	0.18801700	-0.35952600	0.35376600	-0.22294900	-0.69942400	-0.15298600	-0.25027900	-0.48795700	-1.28115600	-0.67245800	-3.66244400	-1.11628500	0.34587100	-1.03745300	0.20348300	0.02825400	-0.38084500	0.80872200	3.94715700	-1.99570100
2051	20.50000000	0.73016300	-0.21802300	0.10239000	0.18607700	0.20539900	-0.34700500	0.03625500	-0.25089300	-0.63290600	-0.10137600	-0.28703900	-0.51885900	-1.67114400	-0.65109800	-3.99760100	-1.14005400	0.33219600	-0.93034600	0.26825500	0.08814300	-0.46217700	1.00410500	4.03077900	-2.08253400
2052	20.51000000	0.71405600	-0.21873800	0.08927700	0.21263200	0.21428300	-0.33027100	-0.13687000	-0.23071000	-0.58523300	-0.01439900	-0.31707100	-0.56291700	-2.14317600	-0.58658000	-4.31589400	-1.09439100	0.33026400	-0.85282400	0.30317600	0.11449300	-0.51292900	1.15813600	3.98907300	-2.06475600
2053	20.52000000	0.69383300	-0.22911300	0.10149800	0.24187000	0.21056200	-0.30082100	-0.12089000	-0.23137100	-0.56688200	0.09050200	-0.33429300	-0.59748900	-2.31255400	-0.53046100	-4.51877600	-0.98718300	0.29829200	-0.76224200	0.31808200	0.14728900	-0.52231500	1.19613600	3.91043600	-2.01545300
2054	20.53000000	0.67374900	-0.23082200	0.08373800	0.26822900	0.18694300	-0.26809700	0.00258800	-0.23041400	-0.60816800	0.19649300	-0.33311300	-0.62850000	-1.91865500	-0.50312200	-4.58587700	-0.81984800	0.23720900	-0.65403900	0.27213800	0.12273100	-0.48583300	1.27363000	3.80667300	-1.99550700
2055	20.54000000	0.64025700	-0.22689500	0.07219900	0.28356600	0.16968400	-0.23500800	0.19711100	-0.20496500	-0.67039100	0.27511500	-0.31717400	-0.64750300	-1.10130100	-0.45961400	-4.63595800	-0.60753400	0.16218700	-0.54207800	0.25616100	0.12675400	-0.43777500	1.37701100	3.72238100	-1.99330900
2056	20.55000000	0.61015600	-0.21793500	0.06301800	0.27511800	0.15171900	-0.19821500	0.40152400	-0.19135900	-0.70258400	0.33108700	-0.27556100	-0.64787900	-0.10111700	-0.25463400	-4.79841500	-0.38061500	0.10706000	-0.41020200	0.21473700	0.13318200	-0.42055900	1.50496400	3.77292300	-1.96876500
2057	20.56000000	0.57701800	-0.21024900	0.06138200	0.24177000	0.13913800	-0.16150600	0.54769200	-0.19175700	-0.70588300	0.35124900	-0.23995100	-0.64865200	0.66766600	0.00155700	-5.05281100	-0.17729300	0.07735500	-0.26732000	0.22159800	0.12958900	-0.42930600	1.59562700	4.05151900	-1.84374900
2058	20.57000000	0.55155100	-0.20399700	0.07049500	0.18972300	0.13928200	-0.12887400	0.60845200	-0.18983600	-0.69972500	0.34949000	-0.22650700	-0.65399000	0.94721700	0.05291800	-5.17962600	0.00006900	0.06925200	-0.11240600	0.22335100	0.12890100	-0.41634600	1.53855500	4.41189500	-1.59268300
2059	20.58000000	0.52636800	-0.19897100	0.07645000	0.14530900	0.14986500	-0.10175800	0.57277800	-0.21200300	-0.68666000	0.31763000	-0.23068800	-0.65042100	0.81594800	0.00444100	-5.16050900	0.16092800	0.06265100	0.04521200	0.18178900	0.11472300	-0.41103600	1.60614800	4.54830600	-1.30182600
2060	20.59000000	0.49898200	-0.18928000	0.09298200	0.10898500	0.15133200	-0.08400600	0.39168100	-0.21270200	-0.67617600	0.28381800	-0.22930500	-0.65638500	0.53678900	0.01939600	-5.17315500	0.30636700	0.02312800	0.18090100	0.24176700	0.13283300	-0.38990400	1.71233500	4.49040600	-1.09995500
2061	20.60000000	0.48775000	-0.17201300	0.09838500	0.11080500	0.14909300	-0.06205500	0.18246900	-0.20474300	-0.70718000	0.25538600	-0.24576300	-0.67060500	0.35575400	0.14796100	-5.17280700	0.43439700	-0.04542600	0.29730000	0.20216100	0.06716100	-0.34472100	1.76313300	4.39217900	-1.06669200
2062	20.61000000	0.47054100	-0.14294700	0.11460500	0.09829600	0.14464200	-0.05842600	-0.03454700	-0.22029700	-0.73716800	0.22932100	-0.26002000	-0.67687700	0.19705200	0.24109200	-5.02588100	0.52788800	-0.07875100	0.41998000	0.18574700	0.10240100	-0.32447500	1.51055700	4.26621800	-1.20670900
2063	20.62000000	0.44829700	-0.11940200	0.12633800	0.06144800	0.13761100	-0.04785700	-0.13271900	-0.20994100	-0.77140700	0.19623900	-0.24052800	-0.66794800	-0.02070900	0.32350700	-4.77001500	0.59272000	-0.06074500	0.49357300	0.14782500	0.08564100	-0.30302800	0.83483400	4.15371500	-1.46498600
2064	20.63000000	0.43862100	-0.10607800	0.13431700	0.02012400	0.16819100	-0.04037100	-0.14369000	-0.19469400	-0.79282000	0.20402200	-0.23113400	-0.65431600	-0.19523700	0.44487600	-4.53893500	0.62155100	-0.01044200	0.53050900	0.14497400	0.05849800	-0.28621700	-0.02222600	4.09668800	-1.80582100
2065	20.64000000	0.41868200	-0.09084100	0.14680100	-0.01173300	0.23224000	-0.03338900	-0.13323300	-0.20607100	-0.82004400	0.20016100	-0.23365300	-0.62111300	-0.33126200	0.44620800	-4.41255500	0.70621900	0.03356000	0.49138800	0.13525700	0.02471500	-0.26852600	-0.57123000	3.96683400	-2.20666500
2066	20.65000000	0.40334600	-0.06954900	0.15591600	-0.03946000	0.26995400	-0.02396600	-0.09877000	-0.16714700	-0.88826800	0.17726200	-0.23879700	-0.57029800	-0.76605800	0.40537500	-4.30904700	0.83364500	-0.01393700	0.45501400	0.11385900	0.04181200	-0.27540700	-0.65581800	3.78762100	-2.61639300
2067	20.66000000	0.39180500	-0.04791400	0.16089100	-0.06755400	0.23754300	-0.02004000	0.02957400	-0.17446500	-0.97598100	0.17661300	-0.25009000	-0.50685500	-1.35449800	0.48547900	-4.09131300	0.86808400	-0.14067300	0.45521700	0.09119500	-0.00057100	-0.27628800	-0.70393700	3.56931800	-2.90391200
2068	20.67000000	0.36845500	-0.02694700	0.16824200	-0.11084900	0.16751500	-0.02131900	0.04557800	-0.18348000	-1.01306600	0.18813800	-0.26588300	-0.48470300	-1.91380900	0.58507500	-3.76633400	0.79350200	-0.30192200	0.48574800	0.10074100	-0.00297100	-0.28280800	-0.98862200	3.32527000	-3.02376200
2069	20.68000000	0.36006600	-0.01787700	0.17441700	-0.14514700	0.11073500	-0.04117400	-0.03133200	-0.20431800	-1.05622600	0.17413000	-0.27927100	-0.45817400	-2.27432000	0.61603600	-3.39499800	0.56379700	-0.35732400	0.42513000	0.09045900	-0.01633900	-0.28475400	-1.29312000	3.03718500	-3.02799700
2070	20.69000000	0.33173700	-0.00243700	0.17738000	-0.19660000	0.07803200	-0.07397100	-0.17055400	-0.24002900	-1.09364900	0.11575400	-0.26126400	-0.43033700	-2.37595100	0.65431000	-3.05274700	0.32843900	-0.37564200	0.43430000	0.10063700	-0.04232000	-0.28340000	-1.57779800	2.66484500	-2.99272400
2071	20.70000000	0.30966100	0.00279000	0.17728200	-0.22442900	0.07128000	-0.10840900	-0.30840300	-0.24482200	-1.14010800	0.03958200	-0.24500000	-0.41867600	-2.36548800	0.66526200	-2.68968500	0.11824500	-0.37604000	0.52613000	0.02943300	-0.04877500	-0.27393900	-1.68457100	2.20557000	-2.94482700
2072	20.71000000	0.27820100	0.02000100	0.16774000	-0.23461000	0.06441600	-0.15947500	-0.39617600	-0.25211500	-1.21971000	-0.05088100	-0.20410100	-0.38901800	-2.25233500	0.58203700	-2.21555000	-0.16453700	-0.27365400	0.49720000	-0.00066600	-0.05583700	-0.28751200	-1.72827700	1.70723300	-2.83400200
2073	20.72000000	0.24833800	0.02799200	0.15031300	-0.21482700	0.06623500	-0.22039600	-0.47035100	-0.23392500	-1.27218600	-0.13420000	-0.15455000	-0.36664000	-2.16042900	0.47212200	-1.71125600	-0.35943200	-0.19233000	0.50003600	0.01277700	-0.06030900	-0.34528200	-1.69944600	1.17841800	-2.67551300
2074	20.73000000	0.21610300	0.03913700	0.13573400	-0.18489200	0.06823300	-0.28518700	-0.44234100	-0.22852800	-1.30117500	-0.21438000	-0.10625300	-0.35014000	-2.07811900	0.32928600	-1.24383700	-0.52972700	-0.12394900	0.47061200	0.03616400	-0.11431200	-0.37901300	-1.54859300	0.67363900	-2.45147200
2075	20.74000000	0.18606100	0.05083800	0.12348000	-0.15599600	0.04877400	-0.33718200	-0.40407700	-0.22738400	-1.31091200	-0.27730200	-0.05026000	-0.34730600	-1.93195100	0.14063500	-0.77247100	-0.73040100	-0.10943500	0.38214500	0.08085600	-0.08699900	-0.46441600	-1.30125200	0.24153700	-2.17286000
2076	20.75000000	0.15326200	0.06506100	0.10748000	-0.12418000	0.02950700	-0.37769400	-0.41748400	-0.23503700	-1.35497900	-0.31675500	-0.01407400	-0.34956500	-1.73071100	-0.02014900	-0.28223400	-0.91877700	-0.15433800	0.27510900	0.08106800	-0.15117600	-0.53083700	-0.95289700	-0.12589700	-1.85374400
2077	20.76000000	0.11408800	0.08020900	0.08868500	-0.10748600	0.00426700	-0.40859000	-0.46489100	-0.23044400	-1.38336700	-0.32142300	0.00613200	-0.35844200	-1.52789900	-0.17743500	0.19922700	-1.07820600	-0.28184500	0.19398300	0.08449000	-0.19723000	-0.61027300	-0.61395400	-0.50613700	-1.51753100
2078	20.77000000	0.06848000	0.10937300	0.07799400	-0.08554500	-0.02286200	-0.41053900	-0.55150300	-0.22950700	-1.40410500	-0.34093400	0.04056400	-0.37321600	-1.30883100	-0.32499500	0.62181500	-1.18667700	-0.50018300	0.13464700	0.15499800	-0.23433900	-0.63573000	-0.35418300	-0.83376300	-1.16077200
2079	20.78000000	0.02514800	0.13793200	0.06860600	-0.08646900	-0.03319300	-0.40716400	-0.68782000	-0.22379000	-1.41305200	-0.37554100	0.07783300	-0.38466200	-1.05069200	-0.46472500	0.99268800	-1.20217900	-0.76294700	0.09331000	0.17333100	-0.48377600	-0.54628000	-0.24203600	-2.34980300	-0.51053200
2080	20.79000000	-0.03457000	0.16856800	0.06207300	-0.08335700	-0.02150600	-0.39344200	-0.87579500	-0.24004400	-1.42704300	-0.46276400	0.12408500	-0.39312600	-0.86605600	-0.68242200	1.30063100	-1.09704500	-1.04690600	0.10485200	-0.06352500	-0.64062900	-0.50679700	-0.54506800	-1.81520100	0.33895400
2081	20.80000000	-0.10618900	0.21037500	0.06558900	-0.07104600	-0.01048000	-0.36500700	-0.96420700	-0.22775400	-1.48419100	-0.57250700	0.18258200	-0.41049500	-0.63031200	-0.75514600	1.52953700	-0.94747900	-1.23395300	0.14057800	0.06356500	-0.85160300	-0.50709700	-0.89597500	-2.21964400	0.40744800
2082	20.81000000	-0.17173900	0.26511400	0.05512500	-0.05758300	0.02300800	-0.32873500	-0.96989500	-0.18560700	-1.58098900	-0.65892000	0.23518700	-0.39795900	-0.37769500	-0.82772900	1.32888000	-0.86138800	-1.24636500	0.20909200	-0.00040700	-1.09435700	-0.45095200	-0.81471900	-2.00630000	0.28269500
2083	20.82000000	-0.22867800	0.31714500	0.04773300	-0.03009100	0.04047200	-0.29834500	-0.95169200	-0.15615700	-1.71048800	-0.68597200	0.28081500	-0.36011500	0.61424400	-1.10495100	0.58549600	-0.81836100	-1.17887400	0.36149600	-0.08591100	-1.41631600	-0.45133700	0.14213000	-2.69407300	0.39896400
2084	20.83000000	-0.27341100	0.37361200	0.03098400	0.04678300	0.00415200	-0.28917200	-0.91554100	-0.13442400	-1.84136000	-0.65835200	0.31414300	-0.29600700	0.95531600	-0.93781500	0.33323800	-0.79479500	-1.04569100	0.49980300	-0.01880100	-1.76741400	-0.47935500	-0.72399100	-2.90797200	0.57796000
